solid N2
   facet normal 0.000000e+000 1.000000e+000 0.000000e+000
      outer loop
         vertex 1.606969e+001 5.000000e+002 1.915111e+001
         vertex 1.671248e+001 5.000000e+002 1.991715e+001
         vertex 1.915111e+001 5.000000e+002 1.606969e+001
      endloop
   endfacet
   facet normal 0.000000e+000 1.000000e+000 0.000000e+000
      outer loop
         vertex 1.915111e+001 5.000000e+002 1.606969e+001
         vertex 1.671248e+001 5.000000e+002 1.991715e+001
         vertex 1.991715e+001 5.000000e+002 1.671248e+001
      endloop
   endfacet
   facet normal 0.000000e+000 1.000000e+000 0.000000e+000
      outer loop
         vertex 1.915111e+001 5.000000e+002 1.606969e+001
         vertex 1.991715e+001 5.000000e+002 1.671248e+001
         vertex 2.165063e+001 5.000000e+002 1.250000e+001
      endloop
   endfacet
   facet normal 0.000000e+000 1.000000e+000 0.000000e+000
      outer loop
         vertex 2.165063e+001 5.000000e+002 1.250000e+001
         vertex 1.991715e+001 5.000000e+002 1.671248e+001
         vertex 2.251666e+001 5.000000e+002 1.300000e+001
      endloop
   endfacet
   facet normal 0.000000e+000 1.000000e+000 0.000000e+000
      outer loop
         vertex 2.165063e+001 5.000000e+002 1.250000e+001
         vertex 2.251666e+001 5.000000e+002 1.300000e+001
         vertex 2.349232e+001 5.000000e+002 8.550504e+000
      endloop
   endfacet
   facet normal 0.000000e+000 1.000000e+000 0.000000e+000
      outer loop
         vertex 2.349232e+001 5.000000e+002 8.550504e+000
         vertex 2.251666e+001 5.000000e+002 1.300000e+001
         vertex 2.443201e+001 5.000000e+002 8.892524e+000
      endloop
   endfacet
   facet normal 0.000000e+000 1.000000e+000 0.000000e+000
      outer loop
         vertex 2.349232e+001 5.000000e+002 8.550504e+000
         vertex 2.443201e+001 5.000000e+002 8.892524e+000
         vertex 2.462019e+001 5.000000e+002 4.341205e+000
      endloop
   endfacet
   facet normal 0.000000e+000 1.000000e+000 0.000000e+000
      outer loop
         vertex 2.462019e+001 5.000000e+002 4.341205e+000
         vertex 2.443201e+001 5.000000e+002 8.892524e+000
         vertex 2.560500e+001 5.000000e+002 4.514853e+000
      endloop
   endfacet
   facet normal 0.000000e+000 1.000000e+000 0.000000e+000
      outer loop
         vertex 2.462019e+001 5.000000e+002 4.341205e+000
         vertex 2.560500e+001 5.000000e+002 4.514853e+000
         vertex 2.500000e+001 5.000000e+002 -1.530808e-015
      endloop
   endfacet
   facet normal 0.000000e+000 1.000000e+000 0.000000e+000
      outer loop
         vertex 2.500000e+001 5.000000e+002 -1.530808e-015
         vertex 2.560500e+001 5.000000e+002 4.514853e+000
         vertex 2.600000e+001 5.000000e+002 -1.592041e-015
      endloop
   endfacet
   facet normal 0.000000e+000 1.000000e+000 0.000000e+000
      outer loop
         vertex 2.500000e+001 5.000000e+002 -1.530808e-015
         vertex 2.600000e+001 5.000000e+002 -1.592041e-015
         vertex 2.462019e+001 5.000000e+002 -4.341205e+000
      endloop
   endfacet
   facet normal 0.000000e+000 1.000000e+000 0.000000e+000
      outer loop
         vertex 2.462019e+001 5.000000e+002 -4.341205e+000
         vertex 2.600000e+001 5.000000e+002 -1.592041e-015
         vertex 2.560500e+001 5.000000e+002 -4.514853e+000
      endloop
   endfacet
   facet normal 0.000000e+000 1.000000e+000 0.000000e+000
      outer loop
         vertex 2.462019e+001 5.000000e+002 -4.341205e+000
         vertex 2.560500e+001 5.000000e+002 -4.514853e+000
         vertex 2.349232e+001 5.000000e+002 -8.550504e+000
      endloop
   endfacet
   facet normal 0.000000e+000 1.000000e+000 0.000000e+000
      outer loop
         vertex 2.349232e+001 5.000000e+002 -8.550504e+000
         vertex 2.560500e+001 5.000000e+002 -4.514853e+000
         vertex 2.443201e+001 5.000000e+002 -8.892524e+000
      endloop
   endfacet
   facet normal 0.000000e+000 1.000000e+000 0.000000e+000
      outer loop
         vertex 2.349232e+001 5.000000e+002 -8.550504e+000
         vertex 2.443201e+001 5.000000e+002 -8.892524e+000
         vertex 2.165063e+001 5.000000e+002 -1.250000e+001
      endloop
   endfacet
   facet normal 0.000000e+000 1.000000e+000 0.000000e+000
      outer loop
         vertex 2.165063e+001 5.000000e+002 -1.250000e+001
         vertex 2.443201e+001 5.000000e+002 -8.892524e+000
         vertex 2.251666e+001 5.000000e+002 -1.300000e+001
      endloop
   endfacet
   facet normal 0.000000e+000 1.000000e+000 0.000000e+000
      outer loop
         vertex 2.165063e+001 5.000000e+002 -1.250000e+001
         vertex 2.251666e+001 5.000000e+002 -1.300000e+001
         vertex 1.915111e+001 5.000000e+002 -1.606969e+001
      endloop
   endfacet
   facet normal 0.000000e+000 1.000000e+000 0.000000e+000
      outer loop
         vertex 1.915111e+001 5.000000e+002 -1.606969e+001
         vertex 2.251666e+001 5.000000e+002 -1.300000e+001
         vertex 1.991715e+001 5.000000e+002 -1.671248e+001
      endloop
   endfacet
   facet normal 0.000000e+000 1.000000e+000 0.000000e+000
      outer loop
         vertex 1.915111e+001 5.000000e+002 -1.606969e+001
         vertex 1.991715e+001 5.000000e+002 -1.671248e+001
         vertex 1.606969e+001 5.000000e+002 -1.915111e+001
      endloop
   endfacet
   facet normal 0.000000e+000 1.000000e+000 0.000000e+000
      outer loop
         vertex 1.606969e+001 5.000000e+002 -1.915111e+001
         vertex 1.991715e+001 5.000000e+002 -1.671248e+001
         vertex 1.671248e+001 5.000000e+002 -1.991715e+001
      endloop
   endfacet
   facet normal 0.000000e+000 1.000000e+000 0.000000e+000
      outer loop
         vertex 1.606969e+001 5.000000e+002 -1.915111e+001
         vertex 1.671248e+001 5.000000e+002 -1.991715e+001
         vertex 1.250000e+001 5.000000e+002 -2.165063e+001
      endloop
   endfacet
   facet normal 0.000000e+000 1.000000e+000 0.000000e+000
      outer loop
         vertex 1.250000e+001 5.000000e+002 -2.165063e+001
         vertex 1.671248e+001 5.000000e+002 -1.991715e+001
         vertex 1.300000e+001 5.000000e+002 -2.251666e+001
      endloop
   endfacet
   facet normal 0.000000e+000 1.000000e+000 0.000000e+000
      outer loop
         vertex 1.250000e+001 5.000000e+002 -2.165063e+001
         vertex 1.300000e+001 5.000000e+002 -2.251666e+001
         vertex 8.550504e+000 5.000000e+002 -2.349232e+001
      endloop
   endfacet
   facet normal 0.000000e+000 1.000000e+000 0.000000e+000
      outer loop
         vertex 8.550504e+000 5.000000e+002 -2.349232e+001
         vertex 1.300000e+001 5.000000e+002 -2.251666e+001
         vertex 8.892524e+000 5.000000e+002 -2.443201e+001
      endloop
   endfacet
   facet normal 0.000000e+000 1.000000e+000 0.000000e+000
      outer loop
         vertex 8.550504e+000 5.000000e+002 -2.349232e+001
         vertex 8.892524e+000 5.000000e+002 -2.443201e+001
         vertex 4.341205e+000 5.000000e+002 -2.462019e+001
      endloop
   endfacet
   facet normal 0.000000e+000 1.000000e+000 0.000000e+000
      outer loop
         vertex 4.341205e+000 5.000000e+002 -2.462019e+001
         vertex 8.892524e+000 5.000000e+002 -2.443201e+001
         vertex 4.514853e+000 5.000000e+002 -2.560500e+001
      endloop
   endfacet
   facet normal 0.000000e+000 1.000000e+000 0.000000e+000
      outer loop
         vertex 4.341205e+000 5.000000e+002 -2.462019e+001
         vertex 4.514853e+000 5.000000e+002 -2.560500e+001
         vertex 0.000000e+000 5.000000e+002 -2.500000e+001
      endloop
   endfacet
   facet normal 0.000000e+000 1.000000e+000 0.000000e+000
      outer loop
         vertex 0.000000e+000 5.000000e+002 -2.500000e+001
         vertex 4.514853e+000 5.000000e+002 -2.560500e+001
         vertex 0.000000e+000 5.000000e+002 -2.600000e+001
      endloop
   endfacet
   facet normal 0.000000e+000 1.000000e+000 0.000000e+000
      outer loop
         vertex 0.000000e+000 5.000000e+002 -2.500000e+001
         vertex 0.000000e+000 5.000000e+002 -2.600000e+001
         vertex -4.341205e+000 5.000000e+002 -2.462019e+001
      endloop
   endfacet
   facet normal 0.000000e+000 1.000000e+000 0.000000e+000
      outer loop
         vertex -4.341205e+000 5.000000e+002 -2.462019e+001
         vertex 0.000000e+000 5.000000e+002 -2.600000e+001
         vertex -4.514853e+000 5.000000e+002 -2.560500e+001
      endloop
   endfacet
   facet normal 0.000000e+000 1.000000e+000 0.000000e+000
      outer loop
         vertex -4.341205e+000 5.000000e+002 -2.462019e+001
         vertex -4.514853e+000 5.000000e+002 -2.560500e+001
         vertex -8.550504e+000 5.000000e+002 -2.349232e+001
      endloop
   endfacet
   facet normal 0.000000e+000 1.000000e+000 0.000000e+000
      outer loop
         vertex -8.550504e+000 5.000000e+002 -2.349232e+001
         vertex -4.514853e+000 5.000000e+002 -2.560500e+001
         vertex -8.892524e+000 5.000000e+002 -2.443201e+001
      endloop
   endfacet
   facet normal 0.000000e+000 1.000000e+000 0.000000e+000
      outer loop
         vertex -8.550504e+000 5.000000e+002 -2.349232e+001
         vertex -8.892524e+000 5.000000e+002 -2.443201e+001
         vertex -1.250000e+001 5.000000e+002 -2.165063e+001
      endloop
   endfacet
   facet normal 0.000000e+000 1.000000e+000 0.000000e+000
      outer loop
         vertex -1.250000e+001 5.000000e+002 -2.165063e+001
         vertex -8.892524e+000 5.000000e+002 -2.443201e+001
         vertex -1.300000e+001 5.000000e+002 -2.251666e+001
      endloop
   endfacet
   facet normal 0.000000e+000 1.000000e+000 0.000000e+000
      outer loop
         vertex -1.250000e+001 5.000000e+002 -2.165063e+001
         vertex -1.300000e+001 5.000000e+002 -2.251666e+001
         vertex -1.606969e+001 5.000000e+002 -1.915111e+001
      endloop
   endfacet
   facet normal 0.000000e+000 1.000000e+000 0.000000e+000
      outer loop
         vertex -1.606969e+001 5.000000e+002 -1.915111e+001
         vertex -1.300000e+001 5.000000e+002 -2.251666e+001
         vertex -1.671248e+001 5.000000e+002 -1.991715e+001
      endloop
   endfacet
   facet normal 0.000000e+000 1.000000e+000 0.000000e+000
      outer loop
         vertex -1.606969e+001 5.000000e+002 -1.915111e+001
         vertex -1.671248e+001 5.000000e+002 -1.991715e+001
         vertex -1.915111e+001 5.000000e+002 -1.606969e+001
      endloop
   endfacet
   facet normal 0.000000e+000 1.000000e+000 0.000000e+000
      outer loop
         vertex -1.915111e+001 5.000000e+002 -1.606969e+001
         vertex -1.671248e+001 5.000000e+002 -1.991715e+001
         vertex -1.991715e+001 5.000000e+002 -1.671248e+001
      endloop
   endfacet
   facet normal 0.000000e+000 1.000000e+000 0.000000e+000
      outer loop
         vertex -1.915111e+001 5.000000e+002 -1.606969e+001
         vertex -1.991715e+001 5.000000e+002 -1.671248e+001
         vertex -2.165063e+001 5.000000e+002 -1.250000e+001
      endloop
   endfacet
   facet normal 0.000000e+000 1.000000e+000 0.000000e+000
      outer loop
         vertex -2.165063e+001 5.000000e+002 -1.250000e+001
         vertex -1.991715e+001 5.000000e+002 -1.671248e+001
         vertex -2.251666e+001 5.000000e+002 -1.300000e+001
      endloop
   endfacet
   facet normal 0.000000e+000 1.000000e+000 0.000000e+000
      outer loop
         vertex -2.165063e+001 5.000000e+002 -1.250000e+001
         vertex -2.251666e+001 5.000000e+002 -1.300000e+001
         vertex -2.349232e+001 5.000000e+002 -8.550504e+000
      endloop
   endfacet
   facet normal 0.000000e+000 1.000000e+000 0.000000e+000
      outer loop
         vertex -2.349232e+001 5.000000e+002 -8.550504e+000
         vertex -2.251666e+001 5.000000e+002 -1.300000e+001
         vertex -2.443201e+001 5.000000e+002 -8.892524e+000
      endloop
   endfacet
   facet normal 0.000000e+000 1.000000e+000 0.000000e+000
      outer loop
         vertex -2.349232e+001 5.000000e+002 -8.550504e+000
         vertex -2.443201e+001 5.000000e+002 -8.892524e+000
         vertex -2.462019e+001 5.000000e+002 -4.341205e+000
      endloop
   endfacet
   facet normal 0.000000e+000 1.000000e+000 0.000000e+000
      outer loop
         vertex -2.462019e+001 5.000000e+002 -4.341205e+000
         vertex -2.443201e+001 5.000000e+002 -8.892524e+000
         vertex -2.560500e+001 5.000000e+002 -4.514853e+000
      endloop
   endfacet
   facet normal 0.000000e+000 1.000000e+000 0.000000e+000
      outer loop
         vertex -2.462019e+001 5.000000e+002 -4.341205e+000
         vertex -2.560500e+001 5.000000e+002 -4.514853e+000
         vertex -2.500000e+001 5.000000e+002 4.592426e-015
      endloop
   endfacet
   facet normal 0.000000e+000 1.000000e+000 0.000000e+000
      outer loop
         vertex -2.500000e+001 5.000000e+002 4.592426e-015
         vertex -2.560500e+001 5.000000e+002 -4.514853e+000
         vertex -2.600000e+001 5.000000e+002 4.776123e-015
      endloop
   endfacet
   facet normal 0.000000e+000 1.000000e+000 0.000000e+000
      outer loop
         vertex -2.500000e+001 5.000000e+002 4.592426e-015
         vertex -2.600000e+001 5.000000e+002 4.776123e-015
         vertex -2.462019e+001 5.000000e+002 4.341205e+000
      endloop
   endfacet
   facet normal 0.000000e+000 1.000000e+000 0.000000e+000
      outer loop
         vertex -2.462019e+001 5.000000e+002 4.341205e+000
         vertex -2.600000e+001 5.000000e+002 4.776123e-015
         vertex -2.560500e+001 5.000000e+002 4.514853e+000
      endloop
   endfacet
   facet normal 0.000000e+000 1.000000e+000 0.000000e+000
      outer loop
         vertex -2.462019e+001 5.000000e+002 4.341205e+000
         vertex -2.560500e+001 5.000000e+002 4.514853e+000
         vertex -2.349232e+001 5.000000e+002 8.550504e+000
      endloop
   endfacet
   facet normal 0.000000e+000 1.000000e+000 0.000000e+000
      outer loop
         vertex -2.349232e+001 5.000000e+002 8.550504e+000
         vertex -2.560500e+001 5.000000e+002 4.514853e+000
         vertex -2.443201e+001 5.000000e+002 8.892524e+000
      endloop
   endfacet
   facet normal 0.000000e+000 1.000000e+000 0.000000e+000
      outer loop
         vertex -2.349232e+001 5.000000e+002 8.550504e+000
         vertex -2.443201e+001 5.000000e+002 8.892524e+000
         vertex -2.165063e+001 5.000000e+002 1.250000e+001
      endloop
   endfacet
   facet normal 0.000000e+000 1.000000e+000 0.000000e+000
      outer loop
         vertex -2.165063e+001 5.000000e+002 1.250000e+001
         vertex -2.443201e+001 5.000000e+002 8.892524e+000
         vertex -2.251666e+001 5.000000e+002 1.300000e+001
      endloop
   endfacet
   facet normal 0.000000e+000 1.000000e+000 0.000000e+000
      outer loop
         vertex -2.165063e+001 5.000000e+002 1.250000e+001
         vertex -2.251666e+001 5.000000e+002 1.300000e+001
         vertex -1.915111e+001 5.000000e+002 1.606969e+001
      endloop
   endfacet
   facet normal 0.000000e+000 1.000000e+000 0.000000e+000
      outer loop
         vertex -1.915111e+001 5.000000e+002 1.606969e+001
         vertex -2.251666e+001 5.000000e+002 1.300000e+001
         vertex -1.991715e+001 5.000000e+002 1.671248e+001
      endloop
   endfacet
   facet normal 0.000000e+000 1.000000e+000 0.000000e+000
      outer loop
         vertex -1.915111e+001 5.000000e+002 1.606969e+001
         vertex -1.991715e+001 5.000000e+002 1.671248e+001
         vertex -1.606969e+001 5.000000e+002 1.915111e+001
      endloop
   endfacet
   facet normal 0.000000e+000 1.000000e+000 0.000000e+000
      outer loop
         vertex -1.606969e+001 5.000000e+002 1.915111e+001
         vertex -1.991715e+001 5.000000e+002 1.671248e+001
         vertex -1.671248e+001 5.000000e+002 1.991715e+001
      endloop
   endfacet
   facet normal 0.000000e+000 1.000000e+000 0.000000e+000
      outer loop
         vertex -1.606969e+001 5.000000e+002 1.915111e+001
         vertex -1.671248e+001 5.000000e+002 1.991715e+001
         vertex -1.250000e+001 5.000000e+002 2.165063e+001
      endloop
   endfacet
   facet normal 0.000000e+000 1.000000e+000 0.000000e+000
      outer loop
         vertex -1.250000e+001 5.000000e+002 2.165063e+001
         vertex -1.671248e+001 5.000000e+002 1.991715e+001
         vertex -1.300000e+001 5.000000e+002 2.251666e+001
      endloop
   endfacet
   facet normal 0.000000e+000 1.000000e+000 0.000000e+000
      outer loop
         vertex -1.250000e+001 5.000000e+002 2.165063e+001
         vertex -1.300000e+001 5.000000e+002 2.251666e+001
         vertex -8.550504e+000 5.000000e+002 2.349232e+001
      endloop
   endfacet
   facet normal 0.000000e+000 1.000000e+000 0.000000e+000
      outer loop
         vertex -8.550504e+000 5.000000e+002 2.349232e+001
         vertex -1.300000e+001 5.000000e+002 2.251666e+001
         vertex -8.892524e+000 5.000000e+002 2.443201e+001
      endloop
   endfacet
   facet normal 0.000000e+000 1.000000e+000 0.000000e+000
      outer loop
         vertex -8.550504e+000 5.000000e+002 2.349232e+001
         vertex -8.892524e+000 5.000000e+002 2.443201e+001
         vertex -4.341205e+000 5.000000e+002 2.462019e+001
      endloop
   endfacet
   facet normal 0.000000e+000 1.000000e+000 0.000000e+000
      outer loop
         vertex -4.341205e+000 5.000000e+002 2.462019e+001
         vertex -8.892524e+000 5.000000e+002 2.443201e+001
         vertex -4.514853e+000 5.000000e+002 2.560500e+001
      endloop
   endfacet
   facet normal 0.000000e+000 1.000000e+000 0.000000e+000
      outer loop
         vertex -4.341205e+000 5.000000e+002 2.462019e+001
         vertex -4.514853e+000 5.000000e+002 2.560500e+001
         vertex 9.184852e-015 5.000000e+002 2.500000e+001
      endloop
   endfacet
   facet normal 0.000000e+000 1.000000e+000 0.000000e+000
      outer loop
         vertex 9.184852e-015 5.000000e+002 2.500000e+001
         vertex -4.514853e+000 5.000000e+002 2.560500e+001
         vertex 3.184082e-015 5.000000e+002 2.600000e+001
      endloop
   endfacet
   facet normal 0.000000e+000 1.000000e+000 0.000000e+000
      outer loop
         vertex 9.184852e-015 5.000000e+002 2.500000e+001
         vertex 3.184082e-015 5.000000e+002 2.600000e+001
         vertex 4.341205e+000 5.000000e+002 2.462019e+001
      endloop
   endfacet
   facet normal 0.000000e+000 1.000000e+000 0.000000e+000
      outer loop
         vertex 4.341205e+000 5.000000e+002 2.462019e+001
         vertex 3.184082e-015 5.000000e+002 2.600000e+001
         vertex 4.514853e+000 5.000000e+002 2.560500e+001
      endloop
   endfacet
   facet normal 0.000000e+000 1.000000e+000 0.000000e+000
      outer loop
         vertex 4.341205e+000 5.000000e+002 2.462019e+001
         vertex 4.514853e+000 5.000000e+002 2.560500e+001
         vertex 8.550504e+000 5.000000e+002 2.349232e+001
      endloop
   endfacet
   facet normal 0.000000e+000 1.000000e+000 0.000000e+000
      outer loop
         vertex 8.550504e+000 5.000000e+002 2.349232e+001
         vertex 4.514853e+000 5.000000e+002 2.560500e+001
         vertex 8.892524e+000 5.000000e+002 2.443201e+001
      endloop
   endfacet
   facet normal 0.000000e+000 1.000000e+000 0.000000e+000
      outer loop
         vertex 8.550504e+000 5.000000e+002 2.349232e+001
         vertex 8.892524e+000 5.000000e+002 2.443201e+001
         vertex 1.250000e+001 5.000000e+002 2.165063e+001
      endloop
   endfacet
   facet normal 0.000000e+000 1.000000e+000 0.000000e+000
      outer loop
         vertex 1.250000e+001 5.000000e+002 2.165063e+001
         vertex 8.892524e+000 5.000000e+002 2.443201e+001
         vertex 1.300000e+001 5.000000e+002 2.251666e+001
      endloop
   endfacet
   facet normal 0.000000e+000 1.000000e+000 0.000000e+000
      outer loop
         vertex 1.250000e+001 5.000000e+002 2.165063e+001
         vertex 1.300000e+001 5.000000e+002 2.251666e+001
         vertex 1.606969e+001 5.000000e+002 1.915111e+001
      endloop
   endfacet
   facet normal 0.000000e+000 1.000000e+000 0.000000e+000
      outer loop
         vertex 1.606969e+001 5.000000e+002 1.915111e+001
         vertex 1.300000e+001 5.000000e+002 2.251666e+001
         vertex 1.671248e+001 5.000000e+002 1.991715e+001
      endloop
   endfacet
   facet normal 0.000000e+000 -1.000000e+000 0.000000e+000
      outer loop
         vertex 2.462019e+001 0.000000e+000 4.341205e+000
         vertex 2.560500e+001 0.000000e+000 4.514853e+000
         vertex 2.349232e+001 0.000000e+000 8.550504e+000
      endloop
   endfacet
   facet normal 0.000000e+000 -1.000000e+000 0.000000e+000
      outer loop
         vertex 2.349232e+001 0.000000e+000 8.550504e+000
         vertex 2.560500e+001 0.000000e+000 4.514853e+000
         vertex 2.443201e+001 0.000000e+000 8.892524e+000
      endloop
   endfacet
   facet normal 0.000000e+000 -1.000000e+000 0.000000e+000
      outer loop
         vertex 2.349232e+001 0.000000e+000 8.550504e+000
         vertex 2.443201e+001 0.000000e+000 8.892524e+000
         vertex 2.165063e+001 0.000000e+000 1.250000e+001
      endloop
   endfacet
   facet normal 0.000000e+000 -1.000000e+000 0.000000e+000
      outer loop
         vertex 2.165063e+001 0.000000e+000 1.250000e+001
         vertex 2.443201e+001 0.000000e+000 8.892524e+000
         vertex 2.251666e+001 0.000000e+000 1.300000e+001
      endloop
   endfacet
   facet normal 0.000000e+000 -1.000000e+000 0.000000e+000
      outer loop
         vertex 2.165063e+001 0.000000e+000 1.250000e+001
         vertex 2.251666e+001 0.000000e+000 1.300000e+001
         vertex 1.915111e+001 0.000000e+000 1.606969e+001
      endloop
   endfacet
   facet normal 0.000000e+000 -1.000000e+000 0.000000e+000
      outer loop
         vertex 1.915111e+001 0.000000e+000 1.606969e+001
         vertex 2.251666e+001 0.000000e+000 1.300000e+001
         vertex 1.991715e+001 0.000000e+000 1.671248e+001
      endloop
   endfacet
   facet normal 0.000000e+000 -1.000000e+000 0.000000e+000
      outer loop
         vertex 1.915111e+001 0.000000e+000 1.606969e+001
         vertex 1.991715e+001 0.000000e+000 1.671248e+001
         vertex 1.606969e+001 0.000000e+000 1.915111e+001
      endloop
   endfacet
   facet normal 0.000000e+000 -1.000000e+000 0.000000e+000
      outer loop
         vertex 1.606969e+001 0.000000e+000 1.915111e+001
         vertex 1.991715e+001 0.000000e+000 1.671248e+001
         vertex 1.671248e+001 0.000000e+000 1.991715e+001
      endloop
   endfacet
   facet normal 0.000000e+000 -1.000000e+000 0.000000e+000
      outer loop
         vertex 1.606969e+001 0.000000e+000 1.915111e+001
         vertex 1.671248e+001 0.000000e+000 1.991715e+001
         vertex 1.250000e+001 0.000000e+000 2.165063e+001
      endloop
   endfacet
   facet normal 0.000000e+000 -1.000000e+000 0.000000e+000
      outer loop
         vertex 1.250000e+001 0.000000e+000 2.165063e+001
         vertex 1.671248e+001 0.000000e+000 1.991715e+001
         vertex 1.300000e+001 0.000000e+000 2.251666e+001
      endloop
   endfacet
   facet normal 0.000000e+000 -1.000000e+000 0.000000e+000
      outer loop
         vertex 1.250000e+001 0.000000e+000 2.165063e+001
         vertex 1.300000e+001 0.000000e+000 2.251666e+001
         vertex 8.550504e+000 0.000000e+000 2.349232e+001
      endloop
   endfacet
   facet normal 0.000000e+000 -1.000000e+000 0.000000e+000
      outer loop
         vertex 8.550504e+000 0.000000e+000 2.349232e+001
         vertex 1.300000e+001 0.000000e+000 2.251666e+001
         vertex 8.892524e+000 0.000000e+000 2.443201e+001
      endloop
   endfacet
   facet normal 0.000000e+000 -1.000000e+000 0.000000e+000
      outer loop
         vertex 8.550504e+000 0.000000e+000 2.349232e+001
         vertex 8.892524e+000 0.000000e+000 2.443201e+001
         vertex 4.341205e+000 0.000000e+000 2.462019e+001
      endloop
   endfacet
   facet normal 0.000000e+000 -1.000000e+000 0.000000e+000
      outer loop
         vertex 4.341205e+000 0.000000e+000 2.462019e+001
         vertex 8.892524e+000 0.000000e+000 2.443201e+001
         vertex 4.514853e+000 0.000000e+000 2.560500e+001
      endloop
   endfacet
   facet normal 0.000000e+000 -1.000000e+000 0.000000e+000
      outer loop
         vertex 4.341205e+000 0.000000e+000 2.462019e+001
         vertex 4.514853e+000 0.000000e+000 2.560500e+001
         vertex 3.061617e-015 0.000000e+000 2.500000e+001
      endloop
   endfacet
   facet normal 0.000000e+000 -1.000000e+000 0.000000e+000
      outer loop
         vertex 3.061617e-015 0.000000e+000 2.500000e+001
         vertex 4.514853e+000 0.000000e+000 2.560500e+001
         vertex 9.552246e-015 0.000000e+000 2.600000e+001
      endloop
   endfacet
   facet normal 0.000000e+000 -1.000000e+000 0.000000e+000
      outer loop
         vertex 3.061617e-015 0.000000e+000 2.500000e+001
         vertex 9.552246e-015 0.000000e+000 2.600000e+001
         vertex -4.341205e+000 0.000000e+000 2.462019e+001
      endloop
   endfacet
   facet normal 0.000000e+000 -1.000000e+000 0.000000e+000
      outer loop
         vertex -4.341205e+000 0.000000e+000 2.462019e+001
         vertex 9.552246e-015 0.000000e+000 2.600000e+001
         vertex -4.514853e+000 0.000000e+000 2.560500e+001
      endloop
   endfacet
   facet normal 0.000000e+000 -1.000000e+000 0.000000e+000
      outer loop
         vertex -4.341205e+000 0.000000e+000 2.462019e+001
         vertex -4.514853e+000 0.000000e+000 2.560500e+001
         vertex -8.550504e+000 0.000000e+000 2.349232e+001
      endloop
   endfacet
   facet normal 0.000000e+000 -1.000000e+000 0.000000e+000
      outer loop
         vertex -8.550504e+000 0.000000e+000 2.349232e+001
         vertex -4.514853e+000 0.000000e+000 2.560500e+001
         vertex -8.892524e+000 0.000000e+000 2.443201e+001
      endloop
   endfacet
   facet normal 0.000000e+000 -1.000000e+000 0.000000e+000
      outer loop
         vertex -8.550504e+000 0.000000e+000 2.349232e+001
         vertex -8.892524e+000 0.000000e+000 2.443201e+001
         vertex -1.250000e+001 0.000000e+000 2.165063e+001
      endloop
   endfacet
   facet normal 0.000000e+000 -1.000000e+000 0.000000e+000
      outer loop
         vertex -1.250000e+001 0.000000e+000 2.165063e+001
         vertex -8.892524e+000 0.000000e+000 2.443201e+001
         vertex -1.300000e+001 0.000000e+000 2.251666e+001
      endloop
   endfacet
   facet normal 0.000000e+000 -1.000000e+000 0.000000e+000
      outer loop
         vertex -1.250000e+001 0.000000e+000 2.165063e+001
         vertex -1.300000e+001 0.000000e+000 2.251666e+001
         vertex -1.606969e+001 0.000000e+000 1.915111e+001
      endloop
   endfacet
   facet normal 0.000000e+000 -1.000000e+000 0.000000e+000
      outer loop
         vertex -1.606969e+001 0.000000e+000 1.915111e+001
         vertex -1.300000e+001 0.000000e+000 2.251666e+001
         vertex -1.671248e+001 0.000000e+000 1.991715e+001
      endloop
   endfacet
   facet normal 0.000000e+000 -1.000000e+000 0.000000e+000
      outer loop
         vertex -1.606969e+001 0.000000e+000 1.915111e+001
         vertex -1.671248e+001 0.000000e+000 1.991715e+001
         vertex -1.915111e+001 0.000000e+000 1.606969e+001
      endloop
   endfacet
   facet normal 0.000000e+000 -1.000000e+000 0.000000e+000
      outer loop
         vertex -1.915111e+001 0.000000e+000 1.606969e+001
         vertex -1.671248e+001 0.000000e+000 1.991715e+001
         vertex -1.991715e+001 0.000000e+000 1.671248e+001
      endloop
   endfacet
   facet normal 0.000000e+000 -1.000000e+000 0.000000e+000
      outer loop
         vertex -1.915111e+001 0.000000e+000 1.606969e+001
         vertex -1.991715e+001 0.000000e+000 1.671248e+001
         vertex -2.165063e+001 0.000000e+000 1.250000e+001
      endloop
   endfacet
   facet normal 0.000000e+000 -1.000000e+000 0.000000e+000
      outer loop
         vertex -2.165063e+001 0.000000e+000 1.250000e+001
         vertex -1.991715e+001 0.000000e+000 1.671248e+001
         vertex -2.251666e+001 0.000000e+000 1.300000e+001
      endloop
   endfacet
   facet normal 0.000000e+000 -1.000000e+000 0.000000e+000
      outer loop
         vertex -2.165063e+001 0.000000e+000 1.250000e+001
         vertex -2.251666e+001 0.000000e+000 1.300000e+001
         vertex -2.349232e+001 0.000000e+000 8.550504e+000
      endloop
   endfacet
   facet normal 0.000000e+000 -1.000000e+000 0.000000e+000
      outer loop
         vertex -2.349232e+001 0.000000e+000 8.550504e+000
         vertex -2.251666e+001 0.000000e+000 1.300000e+001
         vertex -2.443201e+001 0.000000e+000 8.892524e+000
      endloop
   endfacet
   facet normal 0.000000e+000 -1.000000e+000 0.000000e+000
      outer loop
         vertex -2.349232e+001 0.000000e+000 8.550504e+000
         vertex -2.443201e+001 0.000000e+000 8.892524e+000
         vertex -2.462019e+001 0.000000e+000 4.341205e+000
      endloop
   endfacet
   facet normal 0.000000e+000 -1.000000e+000 0.000000e+000
      outer loop
         vertex -2.462019e+001 0.000000e+000 4.341205e+000
         vertex -2.443201e+001 0.000000e+000 8.892524e+000
         vertex -2.560500e+001 0.000000e+000 4.514853e+000
      endloop
   endfacet
   facet normal 0.000000e+000 -1.000000e+000 0.000000e+000
      outer loop
         vertex -2.462019e+001 0.000000e+000 4.341205e+000
         vertex -2.560500e+001 0.000000e+000 4.514853e+000
         vertex -2.500000e+001 0.000000e+000 4.592426e-015
      endloop
   endfacet
   facet normal 0.000000e+000 -1.000000e+000 0.000000e+000
      outer loop
         vertex -2.500000e+001 0.000000e+000 4.592426e-015
         vertex -2.560500e+001 0.000000e+000 4.514853e+000
         vertex -2.600000e+001 0.000000e+000 4.776123e-015
      endloop
   endfacet
   facet normal 0.000000e+000 -1.000000e+000 0.000000e+000
      outer loop
         vertex -2.500000e+001 0.000000e+000 4.592426e-015
         vertex -2.600000e+001 0.000000e+000 4.776123e-015
         vertex -2.462019e+001 0.000000e+000 -4.341205e+000
      endloop
   endfacet
   facet normal 0.000000e+000 -1.000000e+000 0.000000e+000
      outer loop
         vertex -2.462019e+001 0.000000e+000 -4.341205e+000
         vertex -2.600000e+001 0.000000e+000 4.776123e-015
         vertex -2.560500e+001 0.000000e+000 -4.514853e+000
      endloop
   endfacet
   facet normal 0.000000e+000 -1.000000e+000 0.000000e+000
      outer loop
         vertex -2.462019e+001 0.000000e+000 -4.341205e+000
         vertex -2.560500e+001 0.000000e+000 -4.514853e+000
         vertex -2.349232e+001 0.000000e+000 -8.550504e+000
      endloop
   endfacet
   facet normal 0.000000e+000 -1.000000e+000 0.000000e+000
      outer loop
         vertex -2.349232e+001 0.000000e+000 -8.550504e+000
         vertex -2.560500e+001 0.000000e+000 -4.514853e+000
         vertex -2.443201e+001 0.000000e+000 -8.892524e+000
      endloop
   endfacet
   facet normal 0.000000e+000 -1.000000e+000 0.000000e+000
      outer loop
         vertex -2.349232e+001 0.000000e+000 -8.550504e+000
         vertex -2.443201e+001 0.000000e+000 -8.892524e+000
         vertex -2.165063e+001 0.000000e+000 -1.250000e+001
      endloop
   endfacet
   facet normal 0.000000e+000 -1.000000e+000 0.000000e+000
      outer loop
         vertex -2.165063e+001 0.000000e+000 -1.250000e+001
         vertex -2.443201e+001 0.000000e+000 -8.892524e+000
         vertex -2.251666e+001 0.000000e+000 -1.300000e+001
      endloop
   endfacet
   facet normal 0.000000e+000 -1.000000e+000 0.000000e+000
      outer loop
         vertex -2.165063e+001 0.000000e+000 -1.250000e+001
         vertex -2.251666e+001 0.000000e+000 -1.300000e+001
         vertex -1.915111e+001 0.000000e+000 -1.606969e+001
      endloop
   endfacet
   facet normal 0.000000e+000 -1.000000e+000 0.000000e+000
      outer loop
         vertex -1.915111e+001 0.000000e+000 -1.606969e+001
         vertex -2.251666e+001 0.000000e+000 -1.300000e+001
         vertex -1.991715e+001 0.000000e+000 -1.671248e+001
      endloop
   endfacet
   facet normal 0.000000e+000 -1.000000e+000 0.000000e+000
      outer loop
         vertex -1.915111e+001 0.000000e+000 -1.606969e+001
         vertex -1.991715e+001 0.000000e+000 -1.671248e+001
         vertex -1.606969e+001 0.000000e+000 -1.915111e+001
      endloop
   endfacet
   facet normal 0.000000e+000 -1.000000e+000 0.000000e+000
      outer loop
         vertex -1.606969e+001 0.000000e+000 -1.915111e+001
         vertex -1.991715e+001 0.000000e+000 -1.671248e+001
         vertex -1.671248e+001 0.000000e+000 -1.991715e+001
      endloop
   endfacet
   facet normal 0.000000e+000 -1.000000e+000 0.000000e+000
      outer loop
         vertex -1.606969e+001 0.000000e+000 -1.915111e+001
         vertex -1.671248e+001 0.000000e+000 -1.991715e+001
         vertex -1.250000e+001 0.000000e+000 -2.165063e+001
      endloop
   endfacet
   facet normal 0.000000e+000 -1.000000e+000 0.000000e+000
      outer loop
         vertex -1.250000e+001 0.000000e+000 -2.165063e+001
         vertex -1.671248e+001 0.000000e+000 -1.991715e+001
         vertex -1.300000e+001 0.000000e+000 -2.251666e+001
      endloop
   endfacet
   facet normal 0.000000e+000 -1.000000e+000 0.000000e+000
      outer loop
         vertex -1.250000e+001 0.000000e+000 -2.165063e+001
         vertex -1.300000e+001 0.000000e+000 -2.251666e+001
         vertex -8.550504e+000 0.000000e+000 -2.349232e+001
      endloop
   endfacet
   facet normal 0.000000e+000 -1.000000e+000 0.000000e+000
      outer loop
         vertex -8.550504e+000 0.000000e+000 -2.349232e+001
         vertex -1.300000e+001 0.000000e+000 -2.251666e+001
         vertex -8.892524e+000 0.000000e+000 -2.443201e+001
      endloop
   endfacet
   facet normal 0.000000e+000 -1.000000e+000 0.000000e+000
      outer loop
         vertex -8.550504e+000 0.000000e+000 -2.349232e+001
         vertex -8.892524e+000 0.000000e+000 -2.443201e+001
         vertex -4.341205e+000 0.000000e+000 -2.462019e+001
      endloop
   endfacet
   facet normal 0.000000e+000 -1.000000e+000 0.000000e+000
      outer loop
         vertex -4.341205e+000 0.000000e+000 -2.462019e+001
         vertex -8.892524e+000 0.000000e+000 -2.443201e+001
         vertex -4.514853e+000 0.000000e+000 -2.560500e+001
      endloop
   endfacet
   facet normal 0.000000e+000 -1.000000e+000 0.000000e+000
      outer loop
         vertex -4.341205e+000 0.000000e+000 -2.462019e+001
         vertex -4.514853e+000 0.000000e+000 -2.560500e+001
         vertex 0.000000e+000 0.000000e+000 -2.500000e+001
      endloop
   endfacet
   facet normal 0.000000e+000 -1.000000e+000 0.000000e+000
      outer loop
         vertex 0.000000e+000 0.000000e+000 -2.500000e+001
         vertex -4.514853e+000 0.000000e+000 -2.560500e+001
         vertex 0.000000e+000 0.000000e+000 -2.600000e+001
      endloop
   endfacet
   facet normal 0.000000e+000 -1.000000e+000 0.000000e+000
      outer loop
         vertex 0.000000e+000 0.000000e+000 -2.500000e+001
         vertex 0.000000e+000 0.000000e+000 -2.600000e+001
         vertex 4.341205e+000 0.000000e+000 -2.462019e+001
      endloop
   endfacet
   facet normal 0.000000e+000 -1.000000e+000 0.000000e+000
      outer loop
         vertex 4.341205e+000 0.000000e+000 -2.462019e+001
         vertex 0.000000e+000 0.000000e+000 -2.600000e+001
         vertex 4.514853e+000 0.000000e+000 -2.560500e+001
      endloop
   endfacet
   facet normal 0.000000e+000 -1.000000e+000 0.000000e+000
      outer loop
         vertex 4.341205e+000 0.000000e+000 -2.462019e+001
         vertex 4.514853e+000 0.000000e+000 -2.560500e+001
         vertex 8.550504e+000 0.000000e+000 -2.349232e+001
      endloop
   endfacet
   facet normal 0.000000e+000 -1.000000e+000 0.000000e+000
      outer loop
         vertex 8.550504e+000 0.000000e+000 -2.349232e+001
         vertex 4.514853e+000 0.000000e+000 -2.560500e+001
         vertex 8.892524e+000 0.000000e+000 -2.443201e+001
      endloop
   endfacet
   facet normal 0.000000e+000 -1.000000e+000 0.000000e+000
      outer loop
         vertex 8.550504e+000 0.000000e+000 -2.349232e+001
         vertex 8.892524e+000 0.000000e+000 -2.443201e+001
         vertex 1.250000e+001 0.000000e+000 -2.165063e+001
      endloop
   endfacet
   facet normal 0.000000e+000 -1.000000e+000 0.000000e+000
      outer loop
         vertex 1.250000e+001 0.000000e+000 -2.165063e+001
         vertex 8.892524e+000 0.000000e+000 -2.443201e+001
         vertex 1.300000e+001 0.000000e+000 -2.251666e+001
      endloop
   endfacet
   facet normal 0.000000e+000 -1.000000e+000 0.000000e+000
      outer loop
         vertex 1.250000e+001 0.000000e+000 -2.165063e+001
         vertex 1.300000e+001 0.000000e+000 -2.251666e+001
         vertex 1.606969e+001 0.000000e+000 -1.915111e+001
      endloop
   endfacet
   facet normal 0.000000e+000 -1.000000e+000 0.000000e+000
      outer loop
         vertex 1.606969e+001 0.000000e+000 -1.915111e+001
         vertex 1.300000e+001 0.000000e+000 -2.251666e+001
         vertex 1.671248e+001 0.000000e+000 -1.991715e+001
      endloop
   endfacet
   facet normal 0.000000e+000 -1.000000e+000 0.000000e+000
      outer loop
         vertex 1.606969e+001 0.000000e+000 -1.915111e+001
         vertex 1.671248e+001 0.000000e+000 -1.991715e+001
         vertex 1.915111e+001 0.000000e+000 -1.606969e+001
      endloop
   endfacet
   facet normal 0.000000e+000 -1.000000e+000 0.000000e+000
      outer loop
         vertex 1.915111e+001 0.000000e+000 -1.606969e+001
         vertex 1.671248e+001 0.000000e+000 -1.991715e+001
         vertex 1.991715e+001 0.000000e+000 -1.671248e+001
      endloop
   endfacet
   facet normal 0.000000e+000 -1.000000e+000 0.000000e+000
      outer loop
         vertex 1.915111e+001 0.000000e+000 -1.606969e+001
         vertex 1.991715e+001 0.000000e+000 -1.671248e+001
         vertex 2.165063e+001 0.000000e+000 -1.250000e+001
      endloop
   endfacet
   facet normal 0.000000e+000 -1.000000e+000 0.000000e+000
      outer loop
         vertex 2.165063e+001 0.000000e+000 -1.250000e+001
         vertex 1.991715e+001 0.000000e+000 -1.671248e+001
         vertex 2.251666e+001 0.000000e+000 -1.300000e+001
      endloop
   endfacet
   facet normal 0.000000e+000 -1.000000e+000 0.000000e+000
      outer loop
         vertex 2.165063e+001 0.000000e+000 -1.250000e+001
         vertex 2.251666e+001 0.000000e+000 -1.300000e+001
         vertex 2.349232e+001 0.000000e+000 -8.550504e+000
      endloop
   endfacet
   facet normal 0.000000e+000 -1.000000e+000 0.000000e+000
      outer loop
         vertex 2.349232e+001 0.000000e+000 -8.550504e+000
         vertex 2.251666e+001 0.000000e+000 -1.300000e+001
         vertex 2.443201e+001 0.000000e+000 -8.892524e+000
      endloop
   endfacet
   facet normal 0.000000e+000 -1.000000e+000 0.000000e+000
      outer loop
         vertex 2.349232e+001 0.000000e+000 -8.550504e+000
         vertex 2.443201e+001 0.000000e+000 -8.892524e+000
         vertex 2.462019e+001 0.000000e+000 -4.341205e+000
      endloop
   endfacet
   facet normal 0.000000e+000 -1.000000e+000 0.000000e+000
      outer loop
         vertex 2.462019e+001 0.000000e+000 -4.341205e+000
         vertex 2.443201e+001 0.000000e+000 -8.892524e+000
         vertex 2.560500e+001 0.000000e+000 -4.514853e+000
      endloop
   endfacet
   facet normal 0.000000e+000 -1.000000e+000 0.000000e+000
      outer loop
         vertex 2.462019e+001 0.000000e+000 -4.341205e+000
         vertex 2.560500e+001 0.000000e+000 -4.514853e+000
         vertex 2.500000e+001 0.000000e+000 -1.530808e-015
      endloop
   endfacet
   facet normal 0.000000e+000 -1.000000e+000 0.000000e+000
      outer loop
         vertex 2.500000e+001 0.000000e+000 -1.530808e-015
         vertex 2.560500e+001 0.000000e+000 -4.514853e+000
         vertex 2.600000e+001 0.000000e+000 -1.592041e-015
      endloop
   endfacet
   facet normal 0.000000e+000 -1.000000e+000 0.000000e+000
      outer loop
         vertex 2.500000e+001 0.000000e+000 -1.530808e-015
         vertex 2.600000e+001 0.000000e+000 -1.592041e-015
         vertex 2.462019e+001 0.000000e+000 4.341205e+000
      endloop
   endfacet
   facet normal 0.000000e+000 -1.000000e+000 0.000000e+000
      outer loop
         vertex 2.462019e+001 0.000000e+000 4.341205e+000
         vertex 2.600000e+001 0.000000e+000 -1.592041e-015
         vertex 2.560500e+001 0.000000e+000 4.514853e+000
      endloop
   endfacet
   facet normal 1.161583e-001 0.000000e+000 -9.932307e-001
      outer loop
         vertex 0.000000e+000 0.000000e+000 -2.600000e+001
         vertex 4.514853e+000 5.000000e+002 -2.560500e+001
         vertex 4.514853e+000 0.000000e+000 -2.560500e+001
      endloop
   endfacet
   facet normal 2.305519e-001 0.000000e+000 -9.730600e-001
      outer loop
         vertex 4.514853e+000 0.000000e+000 -2.560500e+001
         vertex 4.514853e+000 5.000000e+002 -2.560500e+001
         vertex 8.892524e+000 5.000000e+002 -2.443201e+001
      endloop
   endfacet
   facet normal 2.868663e-001 0.000000e+000 -9.579706e-001
      outer loop
         vertex 4.514853e+000 0.000000e+000 -2.560500e+001
         vertex 8.892524e+000 5.000000e+002 -2.443201e+001
         vertex 8.892524e+000 0.000000e+000 -2.443201e+001
      endloop
   endfacet
   facet normal 3.960194e-001 0.000000e+000 -9.182422e-001
      outer loop
         vertex 8.892524e+000 0.000000e+000 -2.443201e+001
         vertex 8.892524e+000 5.000000e+002 -2.443201e+001
         vertex 1.300000e+001 5.000000e+002 -2.251666e+001
      endloop
   endfacet
   facet normal 4.488580e-001 0.000000e+000 -8.936031e-001
      outer loop
         vertex 8.892524e+000 0.000000e+000 -2.443201e+001
         vertex 1.300000e+001 5.000000e+002 -2.251666e+001
         vertex 1.300000e+001 0.000000e+000 -2.251666e+001
      endloop
   endfacet
   facet normal 5.494540e-001 0.000000e+000 -8.355240e-001
      outer loop
         vertex 1.300000e+001 0.000000e+000 -2.251666e+001
         vertex 1.300000e+001 5.000000e+002 -2.251666e+001
         vertex 1.671248e+001 5.000000e+002 -1.991715e+001
      endloop
   endfacet
   facet normal 5.972114e-001 0.000000e+000 -8.020838e-001
      outer loop
         vertex 1.300000e+001 0.000000e+000 -2.251666e+001
         vertex 1.671248e+001 5.000000e+002 -1.991715e+001
         vertex 1.671248e+001 0.000000e+000 -1.991715e+001
      endloop
   endfacet
   facet normal 6.861938e-001 0.000000e+000 -7.274188e-001
      outer loop
         vertex 1.671248e+001 0.000000e+000 -1.991715e+001
         vertex 1.671248e+001 5.000000e+002 -1.991715e+001
         vertex 1.991715e+001 5.000000e+002 -1.671248e+001
      endloop
   endfacet
   facet normal 7.274188e-001 0.000000e+000 -6.861938e-001
      outer loop
         vertex 1.671248e+001 0.000000e+000 -1.991715e+001
         vertex 1.991715e+001 5.000000e+002 -1.671248e+001
         vertex 1.991715e+001 0.000000e+000 -1.671248e+001
      endloop
   endfacet
   facet normal 8.020838e-001 0.000000e+000 -5.972114e-001
      outer loop
         vertex 1.991715e+001 0.000000e+000 -1.671248e+001
         vertex 1.991715e+001 5.000000e+002 -1.671248e+001
         vertex 2.251666e+001 5.000000e+002 -1.300000e+001
      endloop
   endfacet
   facet normal 8.355240e-001 0.000000e+000 -5.494540e-001
      outer loop
         vertex 1.991715e+001 0.000000e+000 -1.671248e+001
         vertex 2.251666e+001 5.000000e+002 -1.300000e+001
         vertex 2.251666e+001 0.000000e+000 -1.300000e+001
      endloop
   endfacet
   facet normal 8.936031e-001 0.000000e+000 -4.488580e-001
      outer loop
         vertex 2.251666e+001 0.000000e+000 -1.300000e+001
         vertex 2.251666e+001 5.000000e+002 -1.300000e+001
         vertex 2.443201e+001 5.000000e+002 -8.892524e+000
      endloop
   endfacet
   facet normal 9.182422e-001 0.000000e+000 -3.960194e-001
      outer loop
         vertex 2.251666e+001 0.000000e+000 -1.300000e+001
         vertex 2.443201e+001 5.000000e+002 -8.892524e+000
         vertex 2.443201e+001 0.000000e+000 -8.892524e+000
      endloop
   endfacet
   facet normal 9.579706e-001 0.000000e+000 -2.868663e-001
      outer loop
         vertex 2.443201e+001 0.000000e+000 -8.892524e+000
         vertex 2.443201e+001 5.000000e+002 -8.892524e+000
         vertex 2.560500e+001 5.000000e+002 -4.514853e+000
      endloop
   endfacet
   facet normal 9.730600e-001 0.000000e+000 -2.305519e-001
      outer loop
         vertex 2.443201e+001 0.000000e+000 -8.892524e+000
         vertex 2.560500e+001 5.000000e+002 -4.514853e+000
         vertex 2.560500e+001 0.000000e+000 -4.514853e+000
      endloop
   endfacet
   facet normal 9.932307e-001 0.000000e+000 -1.161583e-001
      outer loop
         vertex 2.560500e+001 0.000000e+000 -4.514853e+000
         vertex 2.560500e+001 5.000000e+002 -4.514853e+000
         vertex 2.600000e+001 5.000000e+002 -1.592041e-015
      endloop
   endfacet
   facet normal 9.983119e-001 0.000000e+000 -5.807913e-002
      outer loop
         vertex 2.560500e+001 0.000000e+000 -4.514853e+000
         vertex 2.600000e+001 5.000000e+002 -1.592041e-015
         vertex 2.600000e+001 0.000000e+000 -1.592041e-015
      endloop
   endfacet
   facet normal 9.983119e-001 0.000000e+000 5.807913e-002
      outer loop
         vertex 2.600000e+001 0.000000e+000 -1.592041e-015
         vertex 2.600000e+001 5.000000e+002 -1.592041e-015
         vertex 2.560500e+001 5.000000e+002 4.514853e+000
      endloop
   endfacet
   facet normal 9.932307e-001 0.000000e+000 1.161583e-001
      outer loop
         vertex 2.600000e+001 0.000000e+000 -1.592041e-015
         vertex 2.560500e+001 5.000000e+002 4.514853e+000
         vertex 2.560500e+001 0.000000e+000 4.514853e+000
      endloop
   endfacet
   facet normal 9.730600e-001 0.000000e+000 2.305519e-001
      outer loop
         vertex 2.560500e+001 0.000000e+000 4.514853e+000
         vertex 2.560500e+001 5.000000e+002 4.514853e+000
         vertex 2.443201e+001 5.000000e+002 8.892524e+000
      endloop
   endfacet
   facet normal 9.579706e-001 0.000000e+000 2.868663e-001
      outer loop
         vertex 2.560500e+001 0.000000e+000 4.514853e+000
         vertex 2.443201e+001 5.000000e+002 8.892524e+000
         vertex 2.443201e+001 0.000000e+000 8.892524e+000
      endloop
   endfacet
   facet normal 9.182422e-001 0.000000e+000 3.960194e-001
      outer loop
         vertex 2.443201e+001 0.000000e+000 8.892524e+000
         vertex 2.443201e+001 5.000000e+002 8.892524e+000
         vertex 2.251666e+001 5.000000e+002 1.300000e+001
      endloop
   endfacet
   facet normal 8.936031e-001 0.000000e+000 4.488580e-001
      outer loop
         vertex 2.443201e+001 0.000000e+000 8.892524e+000
         vertex 2.251666e+001 5.000000e+002 1.300000e+001
         vertex 2.251666e+001 0.000000e+000 1.300000e+001
      endloop
   endfacet
   facet normal 8.355240e-001 0.000000e+000 5.494540e-001
      outer loop
         vertex 2.251666e+001 0.000000e+000 1.300000e+001
         vertex 2.251666e+001 5.000000e+002 1.300000e+001
         vertex 1.991715e+001 5.000000e+002 1.671248e+001
      endloop
   endfacet
   facet normal 8.020838e-001 0.000000e+000 5.972114e-001
      outer loop
         vertex 2.251666e+001 0.000000e+000 1.300000e+001
         vertex 1.991715e+001 5.000000e+002 1.671248e+001
         vertex 1.991715e+001 0.000000e+000 1.671248e+001
      endloop
   endfacet
   facet normal 7.274188e-001 0.000000e+000 6.861938e-001
      outer loop
         vertex 1.991715e+001 0.000000e+000 1.671248e+001
         vertex 1.991715e+001 5.000000e+002 1.671248e+001
         vertex 1.671248e+001 5.000000e+002 1.991715e+001
      endloop
   endfacet
   facet normal 6.861938e-001 0.000000e+000 7.274188e-001
      outer loop
         vertex 1.991715e+001 0.000000e+000 1.671248e+001
         vertex 1.671248e+001 5.000000e+002 1.991715e+001
         vertex 1.671248e+001 0.000000e+000 1.991715e+001
      endloop
   endfacet
   facet normal 5.972114e-001 0.000000e+000 8.020838e-001
      outer loop
         vertex 1.671248e+001 0.000000e+000 1.991715e+001
         vertex 1.671248e+001 5.000000e+002 1.991715e+001
         vertex 1.300000e+001 5.000000e+002 2.251666e+001
      endloop
   endfacet
   facet normal 5.494540e-001 0.000000e+000 8.355240e-001
      outer loop
         vertex 1.671248e+001 0.000000e+000 1.991715e+001
         vertex 1.300000e+001 5.000000e+002 2.251666e+001
         vertex 1.300000e+001 0.000000e+000 2.251666e+001
      endloop
   endfacet
   facet normal 4.488580e-001 0.000000e+000 8.936031e-001
      outer loop
         vertex 1.300000e+001 0.000000e+000 2.251666e+001
         vertex 1.300000e+001 5.000000e+002 2.251666e+001
         vertex 8.892524e+000 5.000000e+002 2.443201e+001
      endloop
   endfacet
   facet normal 3.960194e-001 0.000000e+000 9.182422e-001
      outer loop
         vertex 1.300000e+001 0.000000e+000 2.251666e+001
         vertex 8.892524e+000 5.000000e+002 2.443201e+001
         vertex 8.892524e+000 0.000000e+000 2.443201e+001
      endloop
   endfacet
   facet normal 2.868663e-001 0.000000e+000 9.579706e-001
      outer loop
         vertex 8.892524e+000 0.000000e+000 2.443201e+001
         vertex 8.892524e+000 5.000000e+002 2.443201e+001
         vertex 4.514853e+000 5.000000e+002 2.560500e+001
      endloop
   endfacet
   facet normal 2.305519e-001 0.000000e+000 9.730600e-001
      outer loop
         vertex 8.892524e+000 0.000000e+000 2.443201e+001
         vertex 4.514853e+000 5.000000e+002 2.560500e+001
         vertex 4.514853e+000 0.000000e+000 2.560500e+001
      endloop
   endfacet
   facet normal 1.161583e-001 0.000000e+000 9.932307e-001
      outer loop
         vertex 4.514853e+000 0.000000e+000 2.560500e+001
         vertex 4.514853e+000 5.000000e+002 2.560500e+001
         vertex 3.184082e-015 5.000000e+002 2.600000e+001
      endloop
   endfacet
   facet normal 5.807913e-002 0.000000e+000 9.983119e-001
      outer loop
         vertex 4.514853e+000 0.000000e+000 2.560500e+001
         vertex 3.184082e-015 5.000000e+002 2.600000e+001
         vertex 3.184082e-015 0.000000e+000 2.600000e+001
      endloop
   endfacet
   facet normal -5.807913e-002 0.000000e+000 9.983119e-001
      outer loop
         vertex 3.184082e-015 0.000000e+000 2.600000e+001
         vertex 3.184082e-015 5.000000e+002 2.600000e+001
         vertex -4.514853e+000 5.000000e+002 2.560500e+001
      endloop
   endfacet
   facet normal -1.161583e-001 0.000000e+000 9.932307e-001
      outer loop
         vertex 3.184082e-015 0.000000e+000 2.600000e+001
         vertex -4.514853e+000 5.000000e+002 2.560500e+001
         vertex -4.514853e+000 0.000000e+000 2.560500e+001
      endloop
   endfacet
   facet normal -2.305519e-001 0.000000e+000 9.730600e-001
      outer loop
         vertex -4.514853e+000 0.000000e+000 2.560500e+001
         vertex -4.514853e+000 5.000000e+002 2.560500e+001
         vertex -8.892524e+000 5.000000e+002 2.443201e+001
      endloop
   endfacet
   facet normal -2.868663e-001 0.000000e+000 9.579706e-001
      outer loop
         vertex -4.514853e+000 0.000000e+000 2.560500e+001
         vertex -8.892524e+000 5.000000e+002 2.443201e+001
         vertex -8.892524e+000 0.000000e+000 2.443201e+001
      endloop
   endfacet
   facet normal -3.960194e-001 0.000000e+000 9.182422e-001
      outer loop
         vertex -8.892524e+000 0.000000e+000 2.443201e+001
         vertex -8.892524e+000 5.000000e+002 2.443201e+001
         vertex -1.300000e+001 5.000000e+002 2.251666e+001
      endloop
   endfacet
   facet normal -4.488580e-001 0.000000e+000 8.936031e-001
      outer loop
         vertex -8.892524e+000 0.000000e+000 2.443201e+001
         vertex -1.300000e+001 5.000000e+002 2.251666e+001
         vertex -1.300000e+001 0.000000e+000 2.251666e+001
      endloop
   endfacet
   facet normal -5.494540e-001 0.000000e+000 8.355240e-001
      outer loop
         vertex -1.300000e+001 0.000000e+000 2.251666e+001
         vertex -1.300000e+001 5.000000e+002 2.251666e+001
         vertex -1.671248e+001 5.000000e+002 1.991715e+001
      endloop
   endfacet
   facet normal -5.972114e-001 0.000000e+000 8.020838e-001
      outer loop
         vertex -1.300000e+001 0.000000e+000 2.251666e+001
         vertex -1.671248e+001 5.000000e+002 1.991715e+001
         vertex -1.671248e+001 0.000000e+000 1.991715e+001
      endloop
   endfacet
   facet normal -6.861938e-001 0.000000e+000 7.274188e-001
      outer loop
         vertex -1.671248e+001 0.000000e+000 1.991715e+001
         vertex -1.671248e+001 5.000000e+002 1.991715e+001
         vertex -1.991715e+001 5.000000e+002 1.671248e+001
      endloop
   endfacet
   facet normal -7.274188e-001 0.000000e+000 6.861938e-001
      outer loop
         vertex -1.671248e+001 0.000000e+000 1.991715e+001
         vertex -1.991715e+001 5.000000e+002 1.671248e+001
         vertex -1.991715e+001 0.000000e+000 1.671248e+001
      endloop
   endfacet
   facet normal -8.020838e-001 0.000000e+000 5.972114e-001
      outer loop
         vertex -1.991715e+001 0.000000e+000 1.671248e+001
         vertex -1.991715e+001 5.000000e+002 1.671248e+001
         vertex -2.251666e+001 5.000000e+002 1.300000e+001
      endloop
   endfacet
   facet normal -8.355240e-001 0.000000e+000 5.494540e-001
      outer loop
         vertex -1.991715e+001 0.000000e+000 1.671248e+001
         vertex -2.251666e+001 5.000000e+002 1.300000e+001
         vertex -2.251666e+001 0.000000e+000 1.300000e+001
      endloop
   endfacet
   facet normal -8.936031e-001 0.000000e+000 4.488580e-001
      outer loop
         vertex -2.251666e+001 0.000000e+000 1.300000e+001
         vertex -2.251666e+001 5.000000e+002 1.300000e+001
         vertex -2.443201e+001 5.000000e+002 8.892524e+000
      endloop
   endfacet
   facet normal -9.182422e-001 0.000000e+000 3.960194e-001
      outer loop
         vertex -2.251666e+001 0.000000e+000 1.300000e+001
         vertex -2.443201e+001 5.000000e+002 8.892524e+000
         vertex -2.443201e+001 0.000000e+000 8.892524e+000
      endloop
   endfacet
   facet normal -9.579706e-001 0.000000e+000 2.868663e-001
      outer loop
         vertex -2.443201e+001 0.000000e+000 8.892524e+000
         vertex -2.443201e+001 5.000000e+002 8.892524e+000
         vertex -2.560500e+001 5.000000e+002 4.514853e+000
      endloop
   endfacet
   facet normal -9.730600e-001 0.000000e+000 2.305519e-001
      outer loop
         vertex -2.443201e+001 0.000000e+000 8.892524e+000
         vertex -2.560500e+001 5.000000e+002 4.514853e+000
         vertex -2.560500e+001 0.000000e+000 4.514853e+000
      endloop
   endfacet
   facet normal -9.932307e-001 0.000000e+000 1.161583e-001
      outer loop
         vertex -2.560500e+001 0.000000e+000 4.514853e+000
         vertex -2.560500e+001 5.000000e+002 4.514853e+000
         vertex -2.600000e+001 5.000000e+002 4.776123e-015
      endloop
   endfacet
   facet normal -9.983119e-001 0.000000e+000 5.807913e-002
      outer loop
         vertex -2.560500e+001 0.000000e+000 4.514853e+000
         vertex -2.600000e+001 5.000000e+002 4.776123e-015
         vertex -2.600000e+001 0.000000e+000 4.776123e-015
      endloop
   endfacet
   facet normal -9.983119e-001 0.000000e+000 -5.807913e-002
      outer loop
         vertex -2.600000e+001 0.000000e+000 4.776123e-015
         vertex -2.600000e+001 5.000000e+002 4.776123e-015
         vertex -2.560500e+001 5.000000e+002 -4.514853e+000
      endloop
   endfacet
   facet normal -9.932307e-001 0.000000e+000 -1.161583e-001
      outer loop
         vertex -2.600000e+001 0.000000e+000 4.776123e-015
         vertex -2.560500e+001 5.000000e+002 -4.514853e+000
         vertex -2.560500e+001 0.000000e+000 -4.514853e+000
      endloop
   endfacet
   facet normal -9.730600e-001 0.000000e+000 -2.305519e-001
      outer loop
         vertex -2.560500e+001 0.000000e+000 -4.514853e+000
         vertex -2.560500e+001 5.000000e+002 -4.514853e+000
         vertex -2.443201e+001 5.000000e+002 -8.892524e+000
      endloop
   endfacet
   facet normal -9.579706e-001 0.000000e+000 -2.868663e-001
      outer loop
         vertex -2.560500e+001 0.000000e+000 -4.514853e+000
         vertex -2.443201e+001 5.000000e+002 -8.892524e+000
         vertex -2.443201e+001 0.000000e+000 -8.892524e+000
      endloop
   endfacet
   facet normal -9.182422e-001 0.000000e+000 -3.960194e-001
      outer loop
         vertex -2.443201e+001 0.000000e+000 -8.892524e+000
         vertex -2.443201e+001 5.000000e+002 -8.892524e+000
         vertex -2.251666e+001 5.000000e+002 -1.300000e+001
      endloop
   endfacet
   facet normal -8.936031e-001 0.000000e+000 -4.488580e-001
      outer loop
         vertex -2.443201e+001 0.000000e+000 -8.892524e+000
         vertex -2.251666e+001 5.000000e+002 -1.300000e+001
         vertex -2.251666e+001 0.000000e+000 -1.300000e+001
      endloop
   endfacet
   facet normal -8.355240e-001 0.000000e+000 -5.494540e-001
      outer loop
         vertex -2.251666e+001 0.000000e+000 -1.300000e+001
         vertex -2.251666e+001 5.000000e+002 -1.300000e+001
         vertex -1.991715e+001 5.000000e+002 -1.671248e+001
      endloop
   endfacet
   facet normal -8.020838e-001 0.000000e+000 -5.972114e-001
      outer loop
         vertex -2.251666e+001 0.000000e+000 -1.300000e+001
         vertex -1.991715e+001 5.000000e+002 -1.671248e+001
         vertex -1.991715e+001 0.000000e+000 -1.671248e+001
      endloop
   endfacet
   facet normal -7.274188e-001 0.000000e+000 -6.861938e-001
      outer loop
         vertex -1.991715e+001 0.000000e+000 -1.671248e+001
         vertex -1.991715e+001 5.000000e+002 -1.671248e+001
         vertex -1.671248e+001 5.000000e+002 -1.991715e+001
      endloop
   endfacet
   facet normal -6.861938e-001 0.000000e+000 -7.274188e-001
      outer loop
         vertex -1.991715e+001 0.000000e+000 -1.671248e+001
         vertex -1.671248e+001 5.000000e+002 -1.991715e+001
         vertex -1.671248e+001 0.000000e+000 -1.991715e+001
      endloop
   endfacet
   facet normal -5.972114e-001 0.000000e+000 -8.020838e-001
      outer loop
         vertex -1.671248e+001 0.000000e+000 -1.991715e+001
         vertex -1.671248e+001 5.000000e+002 -1.991715e+001
         vertex -1.300000e+001 5.000000e+002 -2.251666e+001
      endloop
   endfacet
   facet normal -5.494540e-001 0.000000e+000 -8.355240e-001
      outer loop
         vertex -1.671248e+001 0.000000e+000 -1.991715e+001
         vertex -1.300000e+001 5.000000e+002 -2.251666e+001
         vertex -1.300000e+001 0.000000e+000 -2.251666e+001
      endloop
   endfacet
   facet normal -4.488580e-001 0.000000e+000 -8.936031e-001
      outer loop
         vertex -1.300000e+001 0.000000e+000 -2.251666e+001
         vertex -1.300000e+001 5.000000e+002 -2.251666e+001
         vertex -8.892524e+000 5.000000e+002 -2.443201e+001
      endloop
   endfacet
   facet normal -3.960194e-001 0.000000e+000 -9.182422e-001
      outer loop
         vertex -1.300000e+001 0.000000e+000 -2.251666e+001
         vertex -8.892524e+000 5.000000e+002 -2.443201e+001
         vertex -8.892524e+000 0.000000e+000 -2.443201e+001
      endloop
   endfacet
   facet normal -2.868663e-001 0.000000e+000 -9.579706e-001
      outer loop
         vertex -8.892524e+000 0.000000e+000 -2.443201e+001
         vertex -8.892524e+000 5.000000e+002 -2.443201e+001
         vertex -4.514853e+000 5.000000e+002 -2.560500e+001
      endloop
   endfacet
   facet normal -2.305519e-001 0.000000e+000 -9.730600e-001
      outer loop
         vertex -8.892524e+000 0.000000e+000 -2.443201e+001
         vertex -4.514853e+000 5.000000e+002 -2.560500e+001
         vertex -4.514853e+000 0.000000e+000 -2.560500e+001
      endloop
   endfacet
   facet normal -1.161583e-001 0.000000e+000 -9.932307e-001
      outer loop
         vertex -4.514853e+000 0.000000e+000 -2.560500e+001
         vertex -4.514853e+000 5.000000e+002 -2.560500e+001
         vertex 0.000000e+000 5.000000e+002 -2.600000e+001
      endloop
   endfacet
   facet normal -5.807913e-002 0.000000e+000 -9.983119e-001
      outer loop
         vertex -4.514853e+000 0.000000e+000 -2.560500e+001
         vertex 0.000000e+000 5.000000e+002 -2.600000e+001
         vertex 0.000000e+000 0.000000e+000 -2.600000e+001
      endloop
   endfacet
   facet normal 5.807913e-002 0.000000e+000 -9.983119e-001
      outer loop
         vertex 0.000000e+000 0.000000e+000 -2.600000e+001
         vertex 0.000000e+000 5.000000e+002 -2.600000e+001
         vertex 4.514853e+000 5.000000e+002 -2.560500e+001
      endloop
   endfacet
   facet normal -5.807913e-002 0.000000e+000 9.983119e-001
      outer loop
         vertex -6.123234e-015 5.000000e+002 -2.500000e+001
         vertex -6.123234e-015 0.000000e+000 -2.500000e+001
         vertex 4.341205e+000 5.000000e+002 -2.462019e+001
      endloop
   endfacet
   facet normal -1.161583e-001 0.000000e+000 9.932307e-001
      outer loop
         vertex 4.341205e+000 5.000000e+002 -2.462019e+001
         vertex -6.123234e-015 0.000000e+000 -2.500000e+001
         vertex 4.341205e+000 0.000000e+000 -2.462019e+001
      endloop
   endfacet
   facet normal -2.305519e-001 0.000000e+000 9.730600e-001
      outer loop
         vertex 4.341205e+000 5.000000e+002 -2.462019e+001
         vertex 4.341205e+000 0.000000e+000 -2.462019e+001
         vertex 8.550504e+000 5.000000e+002 -2.349232e+001
      endloop
   endfacet
   facet normal -2.868663e-001 0.000000e+000 9.579706e-001
      outer loop
         vertex 8.550504e+000 5.000000e+002 -2.349232e+001
         vertex 4.341205e+000 0.000000e+000 -2.462019e+001
         vertex 8.550504e+000 0.000000e+000 -2.349232e+001
      endloop
   endfacet
   facet normal -3.960194e-001 0.000000e+000 9.182422e-001
      outer loop
         vertex 8.550504e+000 5.000000e+002 -2.349232e+001
         vertex 8.550504e+000 0.000000e+000 -2.349232e+001
         vertex 1.250000e+001 5.000000e+002 -2.165063e+001
      endloop
   endfacet
   facet normal -4.488580e-001 0.000000e+000 8.936031e-001
      outer loop
         vertex 1.250000e+001 5.000000e+002 -2.165063e+001
         vertex 8.550504e+000 0.000000e+000 -2.349232e+001
         vertex 1.250000e+001 0.000000e+000 -2.165063e+001
      endloop
   endfacet
   facet normal -5.494540e-001 0.000000e+000 8.355240e-001
      outer loop
         vertex 1.250000e+001 5.000000e+002 -2.165063e+001
         vertex 1.250000e+001 0.000000e+000 -2.165063e+001
         vertex 1.606969e+001 5.000000e+002 -1.915111e+001
      endloop
   endfacet
   facet normal -5.972114e-001 0.000000e+000 8.020838e-001
      outer loop
         vertex 1.606969e+001 5.000000e+002 -1.915111e+001
         vertex 1.250000e+001 0.000000e+000 -2.165063e+001
         vertex 1.606969e+001 0.000000e+000 -1.915111e+001
      endloop
   endfacet
   facet normal -6.861938e-001 0.000000e+000 7.274188e-001
      outer loop
         vertex 1.606969e+001 5.000000e+002 -1.915111e+001
         vertex 1.606969e+001 0.000000e+000 -1.915111e+001
         vertex 1.915111e+001 5.000000e+002 -1.606969e+001
      endloop
   endfacet
   facet normal -7.274188e-001 0.000000e+000 6.861938e-001
      outer loop
         vertex 1.915111e+001 5.000000e+002 -1.606969e+001
         vertex 1.606969e+001 0.000000e+000 -1.915111e+001
         vertex 1.915111e+001 0.000000e+000 -1.606969e+001
      endloop
   endfacet
   facet normal -8.020838e-001 0.000000e+000 5.972114e-001
      outer loop
         vertex 1.915111e+001 5.000000e+002 -1.606969e+001
         vertex 1.915111e+001 0.000000e+000 -1.606969e+001
         vertex 2.165063e+001 5.000000e+002 -1.250000e+001
      endloop
   endfacet
   facet normal -8.355240e-001 0.000000e+000 5.494540e-001
      outer loop
         vertex 2.165063e+001 5.000000e+002 -1.250000e+001
         vertex 1.915111e+001 0.000000e+000 -1.606969e+001
         vertex 2.165063e+001 0.000000e+000 -1.250000e+001
      endloop
   endfacet
   facet normal -8.936031e-001 0.000000e+000 4.488580e-001
      outer loop
         vertex 2.165063e+001 5.000000e+002 -1.250000e+001
         vertex 2.165063e+001 0.000000e+000 -1.250000e+001
         vertex 2.349232e+001 5.000000e+002 -8.550504e+000
      endloop
   endfacet
   facet normal -9.182422e-001 0.000000e+000 3.960194e-001
      outer loop
         vertex 2.349232e+001 5.000000e+002 -8.550504e+000
         vertex 2.165063e+001 0.000000e+000 -1.250000e+001
         vertex 2.349232e+001 0.000000e+000 -8.550504e+000
      endloop
   endfacet
   facet normal -9.579706e-001 0.000000e+000 2.868663e-001
      outer loop
         vertex 2.349232e+001 5.000000e+002 -8.550504e+000
         vertex 2.349232e+001 0.000000e+000 -8.550504e+000
         vertex 2.462019e+001 5.000000e+002 -4.341205e+000
      endloop
   endfacet
   facet normal -9.730600e-001 0.000000e+000 2.305519e-001
      outer loop
         vertex 2.462019e+001 5.000000e+002 -4.341205e+000
         vertex 2.349232e+001 0.000000e+000 -8.550504e+000
         vertex 2.462019e+001 0.000000e+000 -4.341205e+000
      endloop
   endfacet
   facet normal -9.932307e-001 0.000000e+000 1.161583e-001
      outer loop
         vertex 2.462019e+001 5.000000e+002 -4.341205e+000
         vertex 2.462019e+001 0.000000e+000 -4.341205e+000
         vertex 2.500000e+001 5.000000e+002 -1.530808e-015
      endloop
   endfacet
   facet normal -9.983119e-001 0.000000e+000 5.807913e-002
      outer loop
         vertex 2.500000e+001 5.000000e+002 -1.530808e-015
         vertex 2.462019e+001 0.000000e+000 -4.341205e+000
         vertex 2.500000e+001 0.000000e+000 -1.530808e-015
      endloop
   endfacet
   facet normal -9.983119e-001 0.000000e+000 -5.807913e-002
      outer loop
         vertex 2.500000e+001 5.000000e+002 -1.530808e-015
         vertex 2.500000e+001 0.000000e+000 -1.530808e-015
         vertex 2.462019e+001 5.000000e+002 4.341205e+000
      endloop
   endfacet
   facet normal -9.932307e-001 0.000000e+000 -1.161583e-001
      outer loop
         vertex 2.462019e+001 5.000000e+002 4.341205e+000
         vertex 2.500000e+001 0.000000e+000 -1.530808e-015
         vertex 2.462019e+001 0.000000e+000 4.341205e+000
      endloop
   endfacet
   facet normal -9.730600e-001 0.000000e+000 -2.305519e-001
      outer loop
         vertex 2.462019e+001 5.000000e+002 4.341205e+000
         vertex 2.462019e+001 0.000000e+000 4.341205e+000
         vertex 2.349232e+001 5.000000e+002 8.550504e+000
      endloop
   endfacet
   facet normal -9.579706e-001 0.000000e+000 -2.868663e-001
      outer loop
         vertex 2.349232e+001 5.000000e+002 8.550504e+000
         vertex 2.462019e+001 0.000000e+000 4.341205e+000
         vertex 2.349232e+001 0.000000e+000 8.550504e+000
      endloop
   endfacet
   facet normal -9.182422e-001 0.000000e+000 -3.960194e-001
      outer loop
         vertex 2.349232e+001 5.000000e+002 8.550504e+000
         vertex 2.349232e+001 0.000000e+000 8.550504e+000
         vertex 2.165063e+001 5.000000e+002 1.250000e+001
      endloop
   endfacet
   facet normal -8.936031e-001 0.000000e+000 -4.488580e-001
      outer loop
         vertex 2.165063e+001 5.000000e+002 1.250000e+001
         vertex 2.349232e+001 0.000000e+000 8.550504e+000
         vertex 2.165063e+001 0.000000e+000 1.250000e+001
      endloop
   endfacet
   facet normal -8.355240e-001 0.000000e+000 -5.494540e-001
      outer loop
         vertex 2.165063e+001 5.000000e+002 1.250000e+001
         vertex 2.165063e+001 0.000000e+000 1.250000e+001
         vertex 1.915111e+001 5.000000e+002 1.606969e+001
      endloop
   endfacet
   facet normal -8.020838e-001 0.000000e+000 -5.972114e-001
      outer loop
         vertex 1.915111e+001 5.000000e+002 1.606969e+001
         vertex 2.165063e+001 0.000000e+000 1.250000e+001
         vertex 1.915111e+001 0.000000e+000 1.606969e+001
      endloop
   endfacet
   facet normal -7.274188e-001 0.000000e+000 -6.861938e-001
      outer loop
         vertex 1.915111e+001 5.000000e+002 1.606969e+001
         vertex 1.915111e+001 0.000000e+000 1.606969e+001
         vertex 1.606969e+001 5.000000e+002 1.915111e+001
      endloop
   endfacet
   facet normal -6.861938e-001 0.000000e+000 -7.274188e-001
      outer loop
         vertex 1.606969e+001 5.000000e+002 1.915111e+001
         vertex 1.915111e+001 0.000000e+000 1.606969e+001
         vertex 1.606969e+001 0.000000e+000 1.915111e+001
      endloop
   endfacet
   facet normal -5.972114e-001 0.000000e+000 -8.020838e-001
      outer loop
         vertex 1.606969e+001 5.000000e+002 1.915111e+001
         vertex 1.606969e+001 0.000000e+000 1.915111e+001
         vertex 1.250000e+001 5.000000e+002 2.165063e+001
      endloop
   endfacet
   facet normal -5.494540e-001 0.000000e+000 -8.355240e-001
      outer loop
         vertex 1.250000e+001 5.000000e+002 2.165063e+001
         vertex 1.606969e+001 0.000000e+000 1.915111e+001
         vertex 1.250000e+001 0.000000e+000 2.165063e+001
      endloop
   endfacet
   facet normal -4.488580e-001 0.000000e+000 -8.936031e-001
      outer loop
         vertex 1.250000e+001 5.000000e+002 2.165063e+001
         vertex 1.250000e+001 0.000000e+000 2.165063e+001
         vertex 8.550504e+000 5.000000e+002 2.349232e+001
      endloop
   endfacet
   facet normal -3.960194e-001 0.000000e+000 -9.182422e-001
      outer loop
         vertex 8.550504e+000 5.000000e+002 2.349232e+001
         vertex 1.250000e+001 0.000000e+000 2.165063e+001
         vertex 8.550504e+000 0.000000e+000 2.349232e+001
      endloop
   endfacet
   facet normal -2.868663e-001 0.000000e+000 -9.579706e-001
      outer loop
         vertex 8.550504e+000 5.000000e+002 2.349232e+001
         vertex 8.550504e+000 0.000000e+000 2.349232e+001
         vertex 4.341205e+000 5.000000e+002 2.462019e+001
      endloop
   endfacet
   facet normal -2.305519e-001 0.000000e+000 -9.730600e-001
      outer loop
         vertex 4.341205e+000 5.000000e+002 2.462019e+001
         vertex 8.550504e+000 0.000000e+000 2.349232e+001
         vertex 4.341205e+000 0.000000e+000 2.462019e+001
      endloop
   endfacet
   facet normal -1.161583e-001 0.000000e+000 -9.932307e-001
      outer loop
         vertex 4.341205e+000 5.000000e+002 2.462019e+001
         vertex 4.341205e+000 0.000000e+000 2.462019e+001
         vertex 3.061617e-015 5.000000e+002 2.500000e+001
      endloop
   endfacet
   facet normal -5.807913e-002 0.000000e+000 -9.983119e-001
      outer loop
         vertex 3.061617e-015 5.000000e+002 2.500000e+001
         vertex 4.341205e+000 0.000000e+000 2.462019e+001
         vertex 3.061617e-015 0.000000e+000 2.500000e+001
      endloop
   endfacet
   facet normal 5.807913e-002 0.000000e+000 -9.983119e-001
      outer loop
         vertex 3.061617e-015 5.000000e+002 2.500000e+001
         vertex 3.061617e-015 0.000000e+000 2.500000e+001
         vertex -4.341205e+000 5.000000e+002 2.462019e+001
      endloop
   endfacet
   facet normal 1.161583e-001 0.000000e+000 -9.932307e-001
      outer loop
         vertex -4.341205e+000 5.000000e+002 2.462019e+001
         vertex 3.061617e-015 0.000000e+000 2.500000e+001
         vertex -4.341205e+000 0.000000e+000 2.462019e+001
      endloop
   endfacet
   facet normal 2.305519e-001 0.000000e+000 -9.730600e-001
      outer loop
         vertex -4.341205e+000 5.000000e+002 2.462019e+001
         vertex -4.341205e+000 0.000000e+000 2.462019e+001
         vertex -8.550504e+000 5.000000e+002 2.349232e+001
      endloop
   endfacet
   facet normal 2.868663e-001 0.000000e+000 -9.579706e-001
      outer loop
         vertex -8.550504e+000 5.000000e+002 2.349232e+001
         vertex -4.341205e+000 0.000000e+000 2.462019e+001
         vertex -8.550504e+000 0.000000e+000 2.349232e+001
      endloop
   endfacet
   facet normal 3.960194e-001 0.000000e+000 -9.182422e-001
      outer loop
         vertex -8.550504e+000 5.000000e+002 2.349232e+001
         vertex -8.550504e+000 0.000000e+000 2.349232e+001
         vertex -1.250000e+001 5.000000e+002 2.165063e+001
      endloop
   endfacet
   facet normal 4.488580e-001 0.000000e+000 -8.936031e-001
      outer loop
         vertex -1.250000e+001 5.000000e+002 2.165063e+001
         vertex -8.550504e+000 0.000000e+000 2.349232e+001
         vertex -1.250000e+001 0.000000e+000 2.165063e+001
      endloop
   endfacet
   facet normal 5.494540e-001 0.000000e+000 -8.355240e-001
      outer loop
         vertex -1.250000e+001 5.000000e+002 2.165063e+001
         vertex -1.250000e+001 0.000000e+000 2.165063e+001
         vertex -1.606969e+001 5.000000e+002 1.915111e+001
      endloop
   endfacet
   facet normal 5.972114e-001 0.000000e+000 -8.020838e-001
      outer loop
         vertex -1.606969e+001 5.000000e+002 1.915111e+001
         vertex -1.250000e+001 0.000000e+000 2.165063e+001
         vertex -1.606969e+001 0.000000e+000 1.915111e+001
      endloop
   endfacet
   facet normal 6.861938e-001 0.000000e+000 -7.274188e-001
      outer loop
         vertex -1.606969e+001 5.000000e+002 1.915111e+001
         vertex -1.606969e+001 0.000000e+000 1.915111e+001
         vertex -1.915111e+001 5.000000e+002 1.606969e+001
      endloop
   endfacet
   facet normal 7.274188e-001 0.000000e+000 -6.861938e-001
      outer loop
         vertex -1.915111e+001 5.000000e+002 1.606969e+001
         vertex -1.606969e+001 0.000000e+000 1.915111e+001
         vertex -1.915111e+001 0.000000e+000 1.606969e+001
      endloop
   endfacet
   facet normal 8.020838e-001 0.000000e+000 -5.972114e-001
      outer loop
         vertex -1.915111e+001 5.000000e+002 1.606969e+001
         vertex -1.915111e+001 0.000000e+000 1.606969e+001
         vertex -2.165063e+001 5.000000e+002 1.250000e+001
      endloop
   endfacet
   facet normal 8.355240e-001 0.000000e+000 -5.494540e-001
      outer loop
         vertex -2.165063e+001 5.000000e+002 1.250000e+001
         vertex -1.915111e+001 0.000000e+000 1.606969e+001
         vertex -2.165063e+001 0.000000e+000 1.250000e+001
      endloop
   endfacet
   facet normal 8.936031e-001 0.000000e+000 -4.488580e-001
      outer loop
         vertex -2.165063e+001 5.000000e+002 1.250000e+001
         vertex -2.165063e+001 0.000000e+000 1.250000e+001
         vertex -2.349232e+001 5.000000e+002 8.550504e+000
      endloop
   endfacet
   facet normal 9.182422e-001 0.000000e+000 -3.960194e-001
      outer loop
         vertex -2.349232e+001 5.000000e+002 8.550504e+000
         vertex -2.165063e+001 0.000000e+000 1.250000e+001
         vertex -2.349232e+001 0.000000e+000 8.550504e+000
      endloop
   endfacet
   facet normal 9.579706e-001 0.000000e+000 -2.868663e-001
      outer loop
         vertex -2.349232e+001 5.000000e+002 8.550504e+000
         vertex -2.349232e+001 0.000000e+000 8.550504e+000
         vertex -2.462019e+001 5.000000e+002 4.341205e+000
      endloop
   endfacet
   facet normal 9.730600e-001 0.000000e+000 -2.305519e-001
      outer loop
         vertex -2.462019e+001 5.000000e+002 4.341205e+000
         vertex -2.349232e+001 0.000000e+000 8.550504e+000
         vertex -2.462019e+001 0.000000e+000 4.341205e+000
      endloop
   endfacet
   facet normal 9.932307e-001 0.000000e+000 -1.161583e-001
      outer loop
         vertex -2.462019e+001 5.000000e+002 4.341205e+000
         vertex -2.462019e+001 0.000000e+000 4.341205e+000
         vertex -2.500000e+001 5.000000e+002 4.592426e-015
      endloop
   endfacet
   facet normal 9.983119e-001 0.000000e+000 -5.807913e-002
      outer loop
         vertex -2.500000e+001 5.000000e+002 4.592426e-015
         vertex -2.462019e+001 0.000000e+000 4.341205e+000
         vertex -2.500000e+001 0.000000e+000 4.592426e-015
      endloop
   endfacet
   facet normal 9.983119e-001 0.000000e+000 5.807913e-002
      outer loop
         vertex -2.500000e+001 5.000000e+002 4.592426e-015
         vertex -2.500000e+001 0.000000e+000 4.592426e-015
         vertex -2.462019e+001 5.000000e+002 -4.341205e+000
      endloop
   endfacet
   facet normal 9.932307e-001 0.000000e+000 1.161583e-001
      outer loop
         vertex -2.462019e+001 5.000000e+002 -4.341205e+000
         vertex -2.500000e+001 0.000000e+000 4.592426e-015
         vertex -2.462019e+001 0.000000e+000 -4.341205e+000
      endloop
   endfacet
   facet normal 9.730600e-001 0.000000e+000 2.305519e-001
      outer loop
         vertex -2.462019e+001 5.000000e+002 -4.341205e+000
         vertex -2.462019e+001 0.000000e+000 -4.341205e+000
         vertex -2.349232e+001 5.000000e+002 -8.550504e+000
      endloop
   endfacet
   facet normal 9.579706e-001 0.000000e+000 2.868663e-001
      outer loop
         vertex -2.349232e+001 5.000000e+002 -8.550504e+000
         vertex -2.462019e+001 0.000000e+000 -4.341205e+000
         vertex -2.349232e+001 0.000000e+000 -8.550504e+000
      endloop
   endfacet
   facet normal 9.182422e-001 0.000000e+000 3.960194e-001
      outer loop
         vertex -2.349232e+001 5.000000e+002 -8.550504e+000
         vertex -2.349232e+001 0.000000e+000 -8.550504e+000
         vertex -2.165063e+001 5.000000e+002 -1.250000e+001
      endloop
   endfacet
   facet normal 8.936031e-001 0.000000e+000 4.488580e-001
      outer loop
         vertex -2.165063e+001 5.000000e+002 -1.250000e+001
         vertex -2.349232e+001 0.000000e+000 -8.550504e+000
         vertex -2.165063e+001 0.000000e+000 -1.250000e+001
      endloop
   endfacet
   facet normal 8.355240e-001 0.000000e+000 5.494540e-001
      outer loop
         vertex -2.165063e+001 5.000000e+002 -1.250000e+001
         vertex -2.165063e+001 0.000000e+000 -1.250000e+001
         vertex -1.915111e+001 5.000000e+002 -1.606969e+001
      endloop
   endfacet
   facet normal 8.020838e-001 0.000000e+000 5.972114e-001
      outer loop
         vertex -1.915111e+001 5.000000e+002 -1.606969e+001
         vertex -2.165063e+001 0.000000e+000 -1.250000e+001
         vertex -1.915111e+001 0.000000e+000 -1.606969e+001
      endloop
   endfacet
   facet normal 7.274188e-001 0.000000e+000 6.861938e-001
      outer loop
         vertex -1.915111e+001 5.000000e+002 -1.606969e+001
         vertex -1.915111e+001 0.000000e+000 -1.606969e+001
         vertex -1.606969e+001 5.000000e+002 -1.915111e+001
      endloop
   endfacet
   facet normal 6.861938e-001 0.000000e+000 7.274188e-001
      outer loop
         vertex -1.606969e+001 5.000000e+002 -1.915111e+001
         vertex -1.915111e+001 0.000000e+000 -1.606969e+001
         vertex -1.606969e+001 0.000000e+000 -1.915111e+001
      endloop
   endfacet
   facet normal 5.972114e-001 0.000000e+000 8.020838e-001
      outer loop
         vertex -1.606969e+001 5.000000e+002 -1.915111e+001
         vertex -1.606969e+001 0.000000e+000 -1.915111e+001
         vertex -1.250000e+001 5.000000e+002 -2.165063e+001
      endloop
   endfacet
   facet normal 5.494540e-001 0.000000e+000 8.355240e-001
      outer loop
         vertex -1.250000e+001 5.000000e+002 -2.165063e+001
         vertex -1.606969e+001 0.000000e+000 -1.915111e+001
         vertex -1.250000e+001 0.000000e+000 -2.165063e+001
      endloop
   endfacet
   facet normal 4.488580e-001 0.000000e+000 8.936031e-001
      outer loop
         vertex -1.250000e+001 5.000000e+002 -2.165063e+001
         vertex -1.250000e+001 0.000000e+000 -2.165063e+001
         vertex -8.550504e+000 5.000000e+002 -2.349232e+001
      endloop
   endfacet
   facet normal 3.960194e-001 0.000000e+000 9.182422e-001
      outer loop
         vertex -8.550504e+000 5.000000e+002 -2.349232e+001
         vertex -1.250000e+001 0.000000e+000 -2.165063e+001
         vertex -8.550504e+000 0.000000e+000 -2.349232e+001
      endloop
   endfacet
   facet normal 2.868663e-001 0.000000e+000 9.579706e-001
      outer loop
         vertex -8.550504e+000 5.000000e+002 -2.349232e+001
         vertex -8.550504e+000 0.000000e+000 -2.349232e+001
         vertex -4.341205e+000 5.000000e+002 -2.462019e+001
      endloop
   endfacet
   facet normal 2.305519e-001 0.000000e+000 9.730600e-001
      outer loop
         vertex -4.341205e+000 5.000000e+002 -2.462019e+001
         vertex -8.550504e+000 0.000000e+000 -2.349232e+001
         vertex -4.341205e+000 0.000000e+000 -2.462019e+001
      endloop
   endfacet
   facet normal 1.161583e-001 0.000000e+000 9.932307e-001
      outer loop
         vertex -4.341205e+000 5.000000e+002 -2.462019e+001
         vertex -4.341205e+000 0.000000e+000 -2.462019e+001
         vertex -6.123234e-015 5.000000e+002 -2.500000e+001
      endloop
   endfacet
   facet normal 5.807913e-002 0.000000e+000 9.983119e-001
      outer loop
         vertex -6.123234e-015 5.000000e+002 -2.500000e+001
         vertex -4.341205e+000 0.000000e+000 -2.462019e+001
         vertex -6.123234e-015 0.000000e+000 -2.500000e+001
      endloop
   endfacet
endsolid